<mxfile host="app.diagrams.net" modified="2023-05-22T16:30:23.324Z" agent="Mozilla/5.0 (Windows NT 10.0; Win64; x64) AppleWebKit/537.36 (KHTML, like Gecko) Chrome/113.0.0.0 Safari/537.36" etag="0jXf6FKvHewyAf3pbOl0" version="21.3.2" type="device">
  <diagram name="Page-1" id="4axCdNZzQPSAp_UAs5xI">
    <mxGraphModel dx="1105" dy="569" grid="1" gridSize="10" guides="1" tooltips="1" connect="1" arrows="1" fold="1" page="1" pageScale="1" pageWidth="850" pageHeight="1100" math="0" shadow="0">
      <root>
        <mxCell id="0" />
        <mxCell id="1" parent="0" />
        <mxCell id="6JKfb1qzbBIi_Gsh4CDv-1" value="" style="rounded=0;whiteSpace=wrap;html=1;fontStyle=1" vertex="1" parent="1">
          <mxGeometry x="240" y="40" width="520" height="440" as="geometry" />
        </mxCell>
        <mxCell id="6JKfb1qzbBIi_Gsh4CDv-2" value="cashier" style="shape=umlActor;verticalLabelPosition=bottom;verticalAlign=top;html=1;outlineConnect=0;" vertex="1" parent="1">
          <mxGeometry x="130" y="140" width="30" height="60" as="geometry" />
        </mxCell>
        <mxCell id="6JKfb1qzbBIi_Gsh4CDv-3" value="admin" style="shape=umlActor;verticalLabelPosition=bottom;verticalAlign=top;html=1;outlineConnect=0;" vertex="1" parent="1">
          <mxGeometry x="130" y="340" width="30" height="60" as="geometry" />
        </mxCell>
        <mxCell id="6JKfb1qzbBIi_Gsh4CDv-4" value="" style="ellipse;whiteSpace=wrap;html=1;" vertex="1" parent="1">
          <mxGeometry x="320" y="80" width="120" height="40" as="geometry" />
        </mxCell>
        <mxCell id="6JKfb1qzbBIi_Gsh4CDv-5" value="" style="ellipse;whiteSpace=wrap;html=1;" vertex="1" parent="1">
          <mxGeometry x="320" y="130" width="120" height="40" as="geometry" />
        </mxCell>
        <mxCell id="6JKfb1qzbBIi_Gsh4CDv-6" value="" style="ellipse;whiteSpace=wrap;html=1;" vertex="1" parent="1">
          <mxGeometry x="320" y="180" width="120" height="40" as="geometry" />
        </mxCell>
        <mxCell id="6JKfb1qzbBIi_Gsh4CDv-7" value="" style="ellipse;whiteSpace=wrap;html=1;" vertex="1" parent="1">
          <mxGeometry x="320" y="230" width="120" height="40" as="geometry" />
        </mxCell>
        <mxCell id="6JKfb1qzbBIi_Gsh4CDv-8" value="" style="ellipse;whiteSpace=wrap;html=1;" vertex="1" parent="1">
          <mxGeometry x="320" y="280" width="120" height="40" as="geometry" />
        </mxCell>
        <mxCell id="6JKfb1qzbBIi_Gsh4CDv-9" value="" style="ellipse;whiteSpace=wrap;html=1;" vertex="1" parent="1">
          <mxGeometry x="320" y="330" width="120" height="40" as="geometry" />
        </mxCell>
        <mxCell id="6JKfb1qzbBIi_Gsh4CDv-10" value="&lt;b&gt;view list of products(drinks, food)&lt;/b&gt;" style="text;html=1;strokeColor=none;fillColor=none;align=center;verticalAlign=middle;whiteSpace=wrap;rounded=0;" vertex="1" parent="1">
          <mxGeometry x="290" y="85" width="190" height="30" as="geometry" />
        </mxCell>
        <mxCell id="6JKfb1qzbBIi_Gsh4CDv-12" value="&lt;b&gt;make, cancel an order, manage table&lt;/b&gt;" style="text;html=1;strokeColor=none;fillColor=none;align=center;verticalAlign=middle;whiteSpace=wrap;rounded=0;" vertex="1" parent="1">
          <mxGeometry x="285" y="135" width="210" height="30" as="geometry" />
        </mxCell>
        <mxCell id="6JKfb1qzbBIi_Gsh4CDv-13" value="&lt;b&gt;make a payment then print receipt&lt;/b&gt;" style="text;html=1;strokeColor=none;fillColor=none;align=center;verticalAlign=middle;whiteSpace=wrap;rounded=0;" vertex="1" parent="1">
          <mxGeometry x="290" y="185" width="200" height="30" as="geometry" />
        </mxCell>
        <mxCell id="6JKfb1qzbBIi_Gsh4CDv-14" value="&lt;b&gt;create, delete (drnks, food, cashier&lt;/b&gt;" style="text;html=1;strokeColor=none;fillColor=none;align=center;verticalAlign=middle;whiteSpace=wrap;rounded=0;" vertex="1" parent="1">
          <mxGeometry x="295" y="235" width="195" height="30" as="geometry" />
        </mxCell>
        <mxCell id="6JKfb1qzbBIi_Gsh4CDv-15" value="&lt;b&gt;update(drinks. food, cashier)&lt;/b&gt;" style="text;html=1;strokeColor=none;fillColor=none;align=center;verticalAlign=middle;whiteSpace=wrap;rounded=0;" vertex="1" parent="1">
          <mxGeometry x="305" y="285" width="160" height="30" as="geometry" />
        </mxCell>
        <mxCell id="6JKfb1qzbBIi_Gsh4CDv-16" value="" style="ellipse;whiteSpace=wrap;html=1;" vertex="1" parent="1">
          <mxGeometry x="320" y="380" width="120" height="40" as="geometry" />
        </mxCell>
        <mxCell id="6JKfb1qzbBIi_Gsh4CDv-18" value="&lt;b&gt;view, deletes(list of an order&#39;s histories)&lt;/b&gt;" style="text;html=1;strokeColor=none;fillColor=none;align=center;verticalAlign=middle;whiteSpace=wrap;rounded=0;" vertex="1" parent="1">
          <mxGeometry x="295" y="335" width="220" height="30" as="geometry" />
        </mxCell>
        <mxCell id="6JKfb1qzbBIi_Gsh4CDv-19" value="&lt;b&gt;manage table&lt;/b&gt;" style="text;html=1;strokeColor=none;fillColor=none;align=center;verticalAlign=middle;whiteSpace=wrap;rounded=0;" vertex="1" parent="1">
          <mxGeometry x="305" y="385" width="140" height="30" as="geometry" />
        </mxCell>
        <mxCell id="6JKfb1qzbBIi_Gsh4CDv-20" value="" style="endArrow=none;html=1;rounded=0;entryX=0;entryY=0.75;entryDx=0;entryDy=0;" edge="1" parent="1" target="6JKfb1qzbBIi_Gsh4CDv-10">
          <mxGeometry width="50" height="50" relative="1" as="geometry">
            <mxPoint x="170" y="160" as="sourcePoint" />
            <mxPoint x="220" y="110" as="targetPoint" />
            <Array as="points" />
          </mxGeometry>
        </mxCell>
        <mxCell id="6JKfb1qzbBIi_Gsh4CDv-21" value="" style="endArrow=none;html=1;rounded=0;entryX=0;entryY=0.75;entryDx=0;entryDy=0;" edge="1" parent="1" target="6JKfb1qzbBIi_Gsh4CDv-12">
          <mxGeometry width="50" height="50" relative="1" as="geometry">
            <mxPoint x="170" y="170" as="sourcePoint" />
            <mxPoint x="220" y="180" as="targetPoint" />
            <Array as="points" />
          </mxGeometry>
        </mxCell>
        <mxCell id="6JKfb1qzbBIi_Gsh4CDv-22" value="" style="endArrow=none;html=1;rounded=0;entryX=0;entryY=0.5;entryDx=0;entryDy=0;" edge="1" parent="1" target="6JKfb1qzbBIi_Gsh4CDv-13">
          <mxGeometry width="50" height="50" relative="1" as="geometry">
            <mxPoint x="170" y="180" as="sourcePoint" />
            <mxPoint x="280" y="200" as="targetPoint" />
            <Array as="points" />
          </mxGeometry>
        </mxCell>
        <mxCell id="6JKfb1qzbBIi_Gsh4CDv-23" value="" style="endArrow=none;html=1;rounded=0;" edge="1" parent="1">
          <mxGeometry width="50" height="50" relative="1" as="geometry">
            <mxPoint x="170" y="362" as="sourcePoint" />
            <mxPoint x="310" y="260" as="targetPoint" />
            <Array as="points" />
          </mxGeometry>
        </mxCell>
        <mxCell id="6JKfb1qzbBIi_Gsh4CDv-24" value="" style="endArrow=none;html=1;rounded=0;entryX=0;entryY=0.75;entryDx=0;entryDy=0;" edge="1" parent="1" target="6JKfb1qzbBIi_Gsh4CDv-15">
          <mxGeometry width="50" height="50" relative="1" as="geometry">
            <mxPoint x="170" y="372" as="sourcePoint" />
            <mxPoint x="320" y="270" as="targetPoint" />
            <Array as="points" />
          </mxGeometry>
        </mxCell>
        <mxCell id="6JKfb1qzbBIi_Gsh4CDv-25" value="" style="endArrow=none;html=1;rounded=0;" edge="1" parent="1" target="6JKfb1qzbBIi_Gsh4CDv-18">
          <mxGeometry width="50" height="50" relative="1" as="geometry">
            <mxPoint x="170" y="380" as="sourcePoint" />
            <mxPoint x="330" y="280" as="targetPoint" />
            <Array as="points" />
          </mxGeometry>
        </mxCell>
        <mxCell id="6JKfb1qzbBIi_Gsh4CDv-26" value="" style="endArrow=none;html=1;rounded=0;" edge="1" parent="1">
          <mxGeometry width="50" height="50" relative="1" as="geometry">
            <mxPoint x="170" y="390" as="sourcePoint" />
            <mxPoint x="310" y="400" as="targetPoint" />
            <Array as="points" />
          </mxGeometry>
        </mxCell>
        <mxCell id="6JKfb1qzbBIi_Gsh4CDv-27" value="" style="ellipse;whiteSpace=wrap;html=1;" vertex="1" parent="1">
          <mxGeometry x="620" y="200" width="120" height="80" as="geometry" />
        </mxCell>
        <mxCell id="6JKfb1qzbBIi_Gsh4CDv-30" value="" style="endArrow=classic;html=1;rounded=0;exitX=1;exitY=0.5;exitDx=0;exitDy=0;" edge="1" parent="1" source="6JKfb1qzbBIi_Gsh4CDv-10">
          <mxGeometry width="50" height="50" relative="1" as="geometry">
            <mxPoint x="590" y="260" as="sourcePoint" />
            <mxPoint x="640" y="210" as="targetPoint" />
          </mxGeometry>
        </mxCell>
        <mxCell id="6JKfb1qzbBIi_Gsh4CDv-31" value="" style="endArrow=classic;html=1;rounded=0;exitX=1;exitY=0.5;exitDx=0;exitDy=0;" edge="1" parent="1" target="6JKfb1qzbBIi_Gsh4CDv-27">
          <mxGeometry width="50" height="50" relative="1" as="geometry">
            <mxPoint x="480" y="155" as="sourcePoint" />
            <mxPoint x="640" y="265" as="targetPoint" />
          </mxGeometry>
        </mxCell>
        <mxCell id="6JKfb1qzbBIi_Gsh4CDv-32" value="" style="endArrow=classic;html=1;rounded=0;exitX=1;exitY=0.5;exitDx=0;exitDy=0;entryX=0.017;entryY=0.355;entryDx=0;entryDy=0;entryPerimeter=0;" edge="1" parent="1" target="6JKfb1qzbBIi_Gsh4CDv-27">
          <mxGeometry width="50" height="50" relative="1" as="geometry">
            <mxPoint x="480" y="200" as="sourcePoint" />
            <mxPoint x="640" y="310" as="targetPoint" />
          </mxGeometry>
        </mxCell>
        <mxCell id="6JKfb1qzbBIi_Gsh4CDv-33" value="" style="endArrow=classic;html=1;rounded=0;exitX=1;exitY=0.5;exitDx=0;exitDy=0;entryX=0;entryY=0.5;entryDx=0;entryDy=0;" edge="1" parent="1" source="6JKfb1qzbBIi_Gsh4CDv-14" target="6JKfb1qzbBIi_Gsh4CDv-27">
          <mxGeometry width="50" height="50" relative="1" as="geometry">
            <mxPoint x="480" y="260" as="sourcePoint" />
            <mxPoint x="640" y="370" as="targetPoint" />
          </mxGeometry>
        </mxCell>
        <mxCell id="6JKfb1qzbBIi_Gsh4CDv-34" value="" style="endArrow=classic;html=1;rounded=0;exitX=1;exitY=0.5;exitDx=0;exitDy=0;entryX=0.037;entryY=0.665;entryDx=0;entryDy=0;entryPerimeter=0;" edge="1" parent="1" target="6JKfb1qzbBIi_Gsh4CDv-27">
          <mxGeometry width="50" height="50" relative="1" as="geometry">
            <mxPoint x="460" y="305" as="sourcePoint" />
            <mxPoint x="620" y="415" as="targetPoint" />
          </mxGeometry>
        </mxCell>
        <mxCell id="6JKfb1qzbBIi_Gsh4CDv-35" value="" style="endArrow=classic;html=1;rounded=0;entryX=0.097;entryY=0.775;entryDx=0;entryDy=0;entryPerimeter=0;" edge="1" parent="1" source="6JKfb1qzbBIi_Gsh4CDv-18" target="6JKfb1qzbBIi_Gsh4CDv-27">
          <mxGeometry width="50" height="50" relative="1" as="geometry">
            <mxPoint x="510" y="350" as="sourcePoint" />
            <mxPoint x="670" y="460" as="targetPoint" />
          </mxGeometry>
        </mxCell>
        <mxCell id="6JKfb1qzbBIi_Gsh4CDv-36" value="" style="endArrow=classic;html=1;rounded=0;exitX=1;exitY=0.5;exitDx=0;exitDy=0;entryX=0;entryY=1;entryDx=0;entryDy=0;" edge="1" parent="1" target="6JKfb1qzbBIi_Gsh4CDv-27">
          <mxGeometry width="50" height="50" relative="1" as="geometry">
            <mxPoint x="445" y="400" as="sourcePoint" />
            <mxPoint x="605" y="510" as="targetPoint" />
          </mxGeometry>
        </mxCell>
        <mxCell id="6JKfb1qzbBIi_Gsh4CDv-37" value="include" style="text;html=1;strokeColor=none;fillColor=none;align=center;verticalAlign=middle;whiteSpace=wrap;rounded=0;" vertex="1" parent="1">
          <mxGeometry x="470" y="355" width="60" height="30" as="geometry" />
        </mxCell>
        <mxCell id="6JKfb1qzbBIi_Gsh4CDv-38" value="include" style="text;html=1;align=center;verticalAlign=middle;resizable=0;points=[];autosize=1;strokeColor=none;fillColor=none;" vertex="1" parent="1">
          <mxGeometry x="510" y="105" width="60" height="30" as="geometry" />
        </mxCell>
        <mxCell id="6JKfb1qzbBIi_Gsh4CDv-41" value="include" style="text;html=1;strokeColor=none;fillColor=none;align=center;verticalAlign=middle;whiteSpace=wrap;rounded=0;" vertex="1" parent="1">
          <mxGeometry x="515" y="290" width="60" height="30" as="geometry" />
        </mxCell>
        <mxCell id="6JKfb1qzbBIi_Gsh4CDv-43" value="include" style="text;html=1;strokeColor=none;fillColor=none;align=center;verticalAlign=middle;whiteSpace=wrap;rounded=0;" vertex="1" parent="1">
          <mxGeometry x="445" y="265" width="60" height="30" as="geometry" />
        </mxCell>
        <mxCell id="6JKfb1qzbBIi_Gsh4CDv-45" value="include" style="text;html=1;strokeColor=none;fillColor=none;align=center;verticalAlign=middle;whiteSpace=wrap;rounded=0;" vertex="1" parent="1">
          <mxGeometry x="480" y="225" width="60" height="30" as="geometry" />
        </mxCell>
        <mxCell id="6JKfb1qzbBIi_Gsh4CDv-47" value="include" style="text;html=1;strokeColor=none;fillColor=none;align=center;verticalAlign=middle;whiteSpace=wrap;rounded=0;" vertex="1" parent="1">
          <mxGeometry x="480" y="170" width="60" height="30" as="geometry" />
        </mxCell>
        <mxCell id="6JKfb1qzbBIi_Gsh4CDv-49" value="include" style="text;html=1;strokeColor=none;fillColor=none;align=center;verticalAlign=middle;whiteSpace=wrap;rounded=0;" vertex="1" parent="1">
          <mxGeometry x="480" y="140" width="60" height="30" as="geometry" />
        </mxCell>
        <mxCell id="6JKfb1qzbBIi_Gsh4CDv-51" value="login" style="text;html=1;strokeColor=none;fillColor=none;align=center;verticalAlign=middle;whiteSpace=wrap;rounded=0;" vertex="1" parent="1">
          <mxGeometry x="650" y="225" width="60" height="30" as="geometry" />
        </mxCell>
        <mxCell id="6JKfb1qzbBIi_Gsh4CDv-52" value="&lt;b&gt;GIC-CAFE&lt;/b&gt;" style="text;html=1;strokeColor=none;fillColor=none;align=center;verticalAlign=middle;whiteSpace=wrap;rounded=0;" vertex="1" parent="1">
          <mxGeometry x="480" y="40" width="60" height="30" as="geometry" />
        </mxCell>
        <mxCell id="6JKfb1qzbBIi_Gsh4CDv-53" value="" style="ellipse;whiteSpace=wrap;html=1;" vertex="1" parent="1">
          <mxGeometry x="670" y="45" width="80" height="50" as="geometry" />
        </mxCell>
        <mxCell id="6JKfb1qzbBIi_Gsh4CDv-54" value="userCase" style="text;html=1;strokeColor=none;fillColor=none;align=center;verticalAlign=middle;whiteSpace=wrap;rounded=0;" vertex="1" parent="1">
          <mxGeometry x="680" y="55" width="60" height="30" as="geometry" />
        </mxCell>
        <mxCell id="6JKfb1qzbBIi_Gsh4CDv-55" value="Actor" style="shape=umlActor;verticalLabelPosition=bottom;verticalAlign=top;html=1;outlineConnect=0;" vertex="1" parent="1">
          <mxGeometry x="630" y="50" width="30" height="35" as="geometry" />
        </mxCell>
        <mxCell id="6JKfb1qzbBIi_Gsh4CDv-57" value="" style="endArrow=classic;html=1;rounded=0;" edge="1" parent="1">
          <mxGeometry width="50" height="50" relative="1" as="geometry">
            <mxPoint x="140" y="230" as="sourcePoint" />
            <mxPoint x="140" y="325" as="targetPoint" />
          </mxGeometry>
        </mxCell>
      </root>
    </mxGraphModel>
  </diagram>
</mxfile>
